<?xml version="1.0" encoding="UTF-8"?>
<svg version="1.1" xmlns="http://www.w3.org/2000/svg" width="1600" height="589">
<path d="M0 0 C56.43 0 112.86 0 171 0 C175.62 13.53 180.24 27.06 185 41 C189.2239527 52.90145392 189.2239527 52.90145392 193.46484375 64.796875 C196.41066062 73.1014876 199.19268081 81.45908264 201.92114258 89.83740234 C203.61962688 95.01878681 205.41180654 100.13007849 207.40234375 105.20703125 C210.17139608 112.31080513 212.55907784 119.51928395 214.93286133 126.76196289 C218.80443474 138.56456279 222.76806633 150.32120874 227 162 C230.71255938 172.27009398 234.27685578 182.58330319 237.74584961 192.93798828 C238.28532907 194.54787887 238.82631673 196.15726493 239.36889648 197.76611328 C240.12711268 200.01695714 240.87898699 202.26981767 241.62890625 204.5234375 C241.85445694 205.19096039 242.08000763 205.85848328 242.31239319 206.54623413 C243.5657405 210.34327021 244.44989778 214.03972215 245 218 C247.1681495 217.18520302 247.1681495 217.18520302 247.83105469 215.05859375 C248.24726074 213.76115234 248.24726074 213.76115234 248.671875 212.4375 C249.16252441 210.93340576 249.16252441 210.93340576 249.66308594 209.39892578 C250.02176758 208.27728027 250.38044922 207.15563477 250.75 206 C251.56089516 203.51768853 252.37337209 201.03593663 253.1875 198.5546875 C253.40718445 197.88283417 253.6268689 197.21098083 253.85321045 196.51876831 C256.74348686 187.69538179 259.7476461 178.91074156 262.75 170.125 C263.04747131 169.2534024 263.34494263 168.38180481 263.65142822 167.48379517 C268.16630044 154.26054171 272.77671388 141.07307114 277.43389893 127.89938354 C281.9776097 115.03458779 286.33427889 102.11384006 290.6237793 89.16235352 C293.83735502 79.46289897 297.10505346 69.78426315 300.4375 60.125 C300.76610519 59.17241806 300.76610519 59.17241806 301.10134888 58.20059204 C302.00167138 55.59124864 302.90219968 52.98197647 303.80314636 50.37284851 C306.61272348 42.23240387 309.39965682 34.08420546 312.18655396 25.93597412 C313.04456695 23.42743026 313.9030034 20.91903161 314.76147461 18.41064453 C315.29023336 16.86491964 315.81896206 15.31918447 316.34765625 13.7734375 C316.58674713 13.07486633 316.82583801 12.37629517 317.07217407 11.65655518 C318.39861991 7.77640284 319.70322291 3.89033127 321 0 C687.63 0 1054.26 0 1432 0 C1432 6.74936139 1432 6.74936139 1430.71826172 10.3269043 C1430.43731659 11.1260173 1430.15637146 11.92513031 1429.86691284 12.74845886 C1429.55762848 13.59845963 1429.24834412 14.44846039 1428.9296875 15.32421875 C1428.61097687 16.2250972 1428.29226624 17.12597565 1427.96389771 18.05415344 C1426.94308087 20.93516163 1425.90976073 23.81147385 1424.875 26.6875 C1423.53438015 30.43975031 1422.19947376 34.19400214 1420.8671875 37.94921875 C1420.54022888 38.86766571 1420.21327026 39.78611267 1419.87640381 40.73239136 C1417.35396275 47.86746008 1415.02715628 55.05292071 1412.82052612 62.29167175 C1411.09858692 67.90141308 1411.09858692 67.90141308 1410 69 C1407.76319997 69.09857313 1405.52320637 69.12447078 1403.28423542 69.1241985 C1402.21151136 69.12611563 1402.21151136 69.12611563 1401.1171161 69.12807148 C1398.6854874 69.13116982 1396.25392187 69.12704974 1393.82229519 69.12304783 C1392.06794951 69.12378653 1390.31360397 69.12496411 1388.55925885 69.12654433 C1383.69290813 69.12963456 1378.82657806 69.12642078 1373.96022887 69.12226619 C1368.68329082 69.11884993 1363.40635499 69.12119935 1358.12941653 69.12284368 C1348.86589897 69.12492371 1339.60238782 69.12326298 1330.338871 69.11920547 C1316.56419919 69.11318874 1302.78953144 69.11286796 1289.01485856 69.11374746 C1265.84752465 69.1150637 1242.68019423 69.11171836 1219.51286125 69.10573006 C1196.56258061 69.099812 1173.61230113 69.09595585 1150.66201973 69.09487724 C1149.94984866 69.09484283 1149.23767759 69.09480842 1148.50392557 69.09477296 C1141.99954912 69.09445977 1135.49517267 69.09417208 1128.99079621 69.09391499 C1112.82006175 69.09327551 1096.64932731 69.09231614 1080.47859287 69.09113979 C1079.3738994 69.09105982 1079.3738994 69.09105982 1078.24688889 69.09097823 C1042.40311754 69.08835532 1006.55934697 69.08204719 970.71557617 69.07543945 C958.27357992 69.07314784 945.83158367 69.0708725 933.3895874 69.06866455 C932.61795656 69.0685276 931.84632571 69.06839065 931.05131212 69.06824955 C895.19482534 69.06190804 859.33833842 69.05818071 823.48185123 69.05512976 C821.15464774 69.05493169 818.82744425 69.0547325 816.50024076 69.05453308 C801.07802526 69.05321332 785.65580976 69.05193867 770.23359426 69.05069422 C739.54597507 69.04821757 708.85835591 69.04547589 678.17073677 69.04255217 C676.70924001 69.04241293 675.24774325 69.04227388 673.7862465 69.04213501 C589.53087255 69.03412725 505.27549945 69.02096644 382 69 C381.86743616 69.61243278 381.73487232 70.22486555 381.5982914 70.8558569 C381.42185286 71.6621935 381.24541431 72.4685301 381.06362915 73.29930115 C380.88981531 74.09735892 380.71600147 74.8954167 380.53692055 75.71765804 C379.85518638 78.61557375 378.92477443 81.36675297 377.8984375 84.16015625 C377.29346436 85.82510132 377.29346436 85.82510132 376.67626953 87.52368164 C376.24685059 88.6914917 375.81743164 89.85930176 375.375 91.0625 C374.46153879 93.58263616 373.54953286 96.10322543 372.640625 98.625 C372.41331696 99.25483292 372.18600891 99.88466583 371.95181274 100.53358459 C369.92031792 106.18121353 368.00248571 111.86215807 366.125 117.5625 C362.87180985 127.41649902 359.55091997 137.24567588 356.1875 147.0625 C355.93280945 147.80602722 355.6781189 148.54955444 355.41571045 149.31561279 C351.54260654 160.61101996 347.57686507 171.87127564 343.56109619 183.11663818 C338.8435039 196.3359493 334.4003214 209.63825003 330.02416992 222.97363281 C327.87146677 229.49166985 325.57887869 235.94129582 323.1875 242.375 C319.98382673 251.06788011 317.06344469 259.82230149 314.34643555 268.67919922 C313.2190018 272.32494517 312.06827836 275.84080753 310.5625 279.3515625 C308.31296522 284.60422622 306.59423178 290.01117502 304.8125 295.4375 C304.0899843 297.62374437 303.36732118 299.80994003 302.64453125 301.99609375 C301.33548828 305.95802734 301.33548828 305.95802734 300 310 C297.36 317.92 294.72 325.84 292 334 C262.3 334 232.6 334 202 334 C190.57296137 302.00429185 190.57296137 302.00429185 186.0625 288.1875 C185.16122368 285.42976772 184.25557234 282.67352105 183.34765625 279.91796875 C182.96617432 278.75031982 182.58469238 277.5826709 182.19165039 276.37963867 C181.37758323 274.07086348 180.48016754 271.79024535 179.51367188 269.54101562 C177.95305855 265.89018728 176.65920253 262.19754023 175.43359375 258.42578125 C174.94838413 256.95310505 174.46311134 255.48044965 173.9777832 254.0078125 C173.60129135 252.85974121 173.60129135 252.85974121 173.2171936 251.68847656 C169.23921297 239.5662933 165.16537838 227.49332999 160.8125 215.5 C156.92710008 204.79138274 153.35448179 194.01537833 149.9543457 183.14453125 C149.60976318 182.04882812 149.26518066 180.953125 148.91015625 179.82421875 C148.46361694 178.38695435 148.46361694 178.38695435 148.00805664 176.9206543 C147.00034032 173.88546 147.00034032 173.88546 145.52807617 170.57226562 C144.03925313 167.09176415 142.81231299 163.61789878 141.640625 160.01953125 C141.20565776 158.69463378 140.770093 157.36993236 140.33398438 156.04541016 C140.11347412 155.374151 139.89296387 154.70289185 139.66577148 154.0112915 C137.74823845 148.21843616 135.73778956 142.45653493 133.75 136.6875 C133.26842424 135.2877773 132.78689847 133.88803739 132.30541992 132.48828125 C129.68956844 124.88676495 127.06085988 117.2898196 124.42260742 109.69604492 C119.83900694 96.49967062 115.39083936 83.26162774 111 70 C83.64391376 68.96727509 56.28699991 68.70254065 28.91430664 68.46777344 C23.03985266 68.41662308 17.16543654 68.36143646 11.29101562 68.30664062 C-0.13929023 68.20058947 -11.56962963 68.09883612 -23 68 C-22.30862855 63.52106462 -21.23918532 59.7178373 -19.5625 55.5 C-15.95262271 46.20706652 -12.87406428 36.73728341 -9.77954102 27.26367188 C-6.75262173 18.0584369 -3.41051548 9.09470795 0 0 Z " fill="#2A948A" transform="translate(82,134)"/>
<path d="M0 0 C-0.3163964 1.44699523 -0.63419544 2.89368381 -0.95259094 4.34024048 C-1.12941564 5.14589762 -1.30624033 5.95155476 -1.48842335 6.78162575 C-2.02469664 9.10709321 -2.68080915 11.33758785 -3.48046875 13.5859375 C-3.75383057 14.36146973 -4.02719238 15.13700195 -4.30883789 15.93603516 C-4.59879639 16.74089355 -4.88875488 17.54575195 -5.1875 18.375 C-5.49357178 19.23786621 -5.79964355 20.10073242 -6.11499023 20.98974609 C-8.49325351 27.66687371 -10.954691 34.3127993 -13.4309082 40.95410156 C-15.82301429 47.41163632 -18.01931875 53.92600269 -20.13500977 60.47900391 C-21.89881296 65.89881296 -21.89881296 65.89881296 -23 67 C-25.2529102 67.09706134 -27.50893179 67.12186638 -29.76393127 67.12025452 C-30.47940736 67.12110894 -31.19488345 67.12196337 -31.93204063 67.12284368 C-34.34737814 67.12450058 -36.76264733 67.11897371 -39.17797852 67.11352539 C-40.90224201 67.11324354 -42.62650562 67.11340121 -44.35076904 67.1139679 C-49.04685147 67.11425595 -53.74290859 67.10835802 -58.43898511 67.10139394 C-63.34107159 67.09516164 -68.24315858 67.0945567 -73.14524841 67.09336853 C-82.43482896 67.09025485 -91.7243978 67.08204096 -101.01397318 67.07201904 C-111.5869496 67.06085905 -122.15992657 67.05534774 -132.73290741 67.05032361 C-154.48861149 67.03985838 -176.24430501 67.02225823 -198 67 C-198.20115984 67.8173399 -198.40231968 68.63467979 -198.60957527 69.47678757 C-198.87603292 70.55249638 -199.14249058 71.62820518 -199.41702271 72.73651123 C-199.68005754 73.80135113 -199.94309238 74.86619102 -200.21409798 75.9632988 C-201.19171443 79.74077864 -202.37723722 83.40271657 -203.6796875 87.078125 C-203.92889954 87.796586 -204.17811157 88.515047 -204.43487549 89.25527954 C-204.96807667 90.79213057 -205.50335369 92.3282628 -206.04058838 93.8637085 C-207.49278427 98.01676992 -208.92715822 102.17595037 -210.359375 106.3359375 C-210.65687653 107.19990143 -210.95437805 108.06386536 -211.26089478 108.95401001 C-215.25036607 120.5862513 -219.01013413 132.29387613 -222.77294922 144.00097656 C-223.03436707 144.81231049 -223.29578491 145.62364441 -223.56512451 146.45956421 C-224.04860749 147.96094825 -224.53041516 149.46287346 -225.0100708 150.96548462 C-226.04750128 154.18834544 -227.13555139 157.35135896 -228.35498047 160.51220703 C-230.82588589 167.25310693 -232.85853708 174.14731866 -235 181 C-204.64 181 -174.28 181 -143 181 C-142.67 179.02 -142.34 177.04 -142 175 C-140.53563314 171.35733674 -138.90898119 167.81259413 -137.27734375 164.2421875 C-135.75563072 160.96052484 -135.75563072 160.96052484 -136 157 C-156.13 157 -176.26 157 -197 157 C-198.15126744 152.39493023 -197.58681391 150.92629975 -196.078125 146.515625 C-195.86217682 145.87486023 -195.64622864 145.23409546 -195.42373657 144.57391357 C-194.70925343 142.46235593 -193.97986083 140.35628671 -193.25 138.25 C-192.75060577 136.7854489 -192.25208187 135.32060077 -191.75439453 133.85546875 C-190.71316834 130.79668775 -189.66535265 127.74027772 -188.61230469 124.68554688 C-187.27325362 120.79988772 -185.94722625 116.90995642 -184.62658691 113.01800537 C-183.37972276 109.34408645 -182.12746745 105.67201163 -180.875 102 C-180.63575806 101.29701782 -180.39651611 100.59403564 -180.15002441 99.86975098 C-179.47555097 97.89124123 -178.79704541 95.91416496 -178.1171875 93.9375 C-177.53880127 92.24947266 -177.53880127 92.24947266 -176.94873047 90.52734375 C-176 88 -176 88 -175 87 C-173.11438482 86.90345273 -171.22510545 86.87812759 -169.33702087 86.87974548 C-168.10717972 86.87837082 -166.87733856 86.87699615 -165.61022949 86.87557983 C-164.23486304 86.87911944 -162.85949683 86.88275426 -161.48413086 86.88647461 C-160.04557802 86.88675648 -158.60702504 86.88659876 -157.16847229 86.8860321 C-153.25128857 86.88574411 -149.33413521 86.89164116 -145.41695857 86.89860606 C-141.32766163 86.90483926 -137.23836407 86.90544337 -133.14906311 86.90663147 C-125.40007602 86.90974489 -117.65110297 86.91795841 -109.90212208 86.92798096 C-101.08243791 86.93914178 -92.26275309 86.94465247 -83.44306362 86.94967639 C-65.29536777 86.96014102 -47.14768501 86.97774066 -29 87 C-27.96777109 90.56758022 -28.15497883 92.09373804 -29.6796875 95.515625 C-32.0937539 101.17947574 -34.12644848 106.92815215 -36.125 112.75 C-36.5068042 113.85601562 -36.8886084 114.96203125 -37.28198242 116.1015625 C-39.44610059 122.39463067 -41.57355643 128.69909205 -43.66796875 135.015625 C-43.88936523 135.68285583 -44.11076172 136.35008667 -44.33886719 137.03753662 C-45.41416574 140.28086157 -46.48480969 143.52556835 -47.54931641 146.77246094 C-49.5244692 152.75713334 -51.59747678 158.64770709 -53.98803711 164.47851562 C-56.00963558 169.51568547 -57.80293305 174.63804961 -59.625 179.75 C-60.27033691 181.55645996 -60.27033691 181.55645996 -60.92871094 183.39941406 C-64.5800799 193.66464001 -68.04275443 203.98967948 -71.42431641 214.34667969 C-74.38129171 223.34899893 -77.66399259 232.10398024 -81 241 C-166.14 241 -251.28 241 -339 241 C-338.27776686 235.22213485 -337.41745571 230.59189893 -335.515625 225.2421875 C-335.13790199 224.1488913 -335.13790199 224.1488913 -334.75254822 223.0335083 C-333.92552608 220.64478397 -333.08771189 218.25999407 -332.25 215.875 C-331.66493208 214.19023267 -331.08071836 212.50516849 -330.49731445 210.81982422 C-329.28167445 207.31034704 -328.06235534 203.80218124 -326.84033203 200.29492188 C-324.20409607 192.72071761 -321.60834614 185.132687 -319.01449585 177.54388428 C-318.18676661 175.12285491 -317.35775262 172.70226831 -316.52856445 170.28173828 C-313.62024281 161.78553865 -310.75077087 153.27823817 -307.9375 144.75 C-304.22538584 133.50247439 -300.27184708 122.34192219 -296.29858398 111.18457031 C-293.48130484 103.26370179 -290.74487629 95.32341465 -288.11523438 87.33813477 C-286.61519811 82.84820573 -285.01136118 78.39851731 -283.40625 73.9453125 C-282.40573047 71.1555116 -281.43058519 68.35805616 -280.46875 65.5546875 C-276.01461884 52.58571487 -271.39265537 39.67894959 -266.7237854 26.78594971 C-265.99208905 24.76426892 -265.26175927 22.742093 -264.5328064 20.71942139 C-263.49731177 17.8479064 -262.45643688 14.97839864 -261.4140625 12.109375 C-261.09976791 11.23534027 -260.78547333 10.36130554 -260.46165466 9.46078491 C-260.16702835 8.65355988 -259.87240204 7.84633484 -259.56884766 7.01464844 C-259.31318024 6.30902771 -259.05751282 5.60340698 -258.7940979 4.87640381 C-258 3 -258 3 -256 0 C-253.4799781 -0.3092692 -251.20186804 -0.42005113 -248.67762756 -0.40545654 C-247.91308728 -0.41280894 -247.148547 -0.42016133 -246.36083883 -0.42773652 C-243.78218667 -0.4488323 -241.20397632 -0.44844168 -238.62524414 -0.44824219 C-236.77980793 -0.45889367 -234.93437883 -0.47084233 -233.08895874 -0.48399353 C-228.04601473 -0.51603614 -223.00317338 -0.5292851 -217.96014333 -0.53904247 C-212.62917902 -0.55219368 -207.29830027 -0.58136417 -201.96739197 -0.60845947 C-192.95248167 -0.65191826 -183.93758798 -0.68391673 -174.92260742 -0.70849609 C-165.78452473 -0.73346814 -156.64654956 -0.76763116 -147.50854492 -0.81298828 C-98.32830812 -1.05693746 -49.16920039 -1.24030202 0 0 Z " fill="#2A948A" transform="translate(1203,227)"/>
<path d="M0 0 C1.17960121 0.00056958 1.17960121 0.00056958 2.38303274 0.00115067 C3.28722324 -0.00084038 4.19141374 -0.00283143 5.12300396 -0.00488281 C6.63026811 -0.00051355 6.63026811 -0.00051355 8.16798204 0.00394398 C9.22647653 0.00308955 10.28497101 0.00223513 11.37554109 0.00135481 C14.95171148 -0.00030314 18.52783581 0.00522652 22.10400194 0.01067311 C24.65584112 0.01095494 27.20768038 0.01079733 29.75951952 0.0102306 C35.26853906 0.01000228 40.77754355 0.01285379 46.28656 0.01846844 C54.25175896 0.0265811 62.21695218 0.02919842 70.18215483 0.03045643 C83.10386101 0.03264732 96.0255609 0.0393084 108.94726366 0.04875904 C121.50260188 0.05793221 134.05793839 0.06501351 146.61327928 0.06926686 C147.38664841 0.06952958 148.16001755 0.0697923 148.9568221 0.07006299 C152.83642591 0.07136799 156.71602974 0.0726317 160.59563357 0.07387489 C192.80212226 0.08424865 225.00860322 0.10186797 257.21508592 0.1241985 C256.55542422 5.07148891 255.58164368 9.50733189 253.98461717 14.241386 C253.75804933 14.91820927 253.53148149 15.59503254 253.29804796 16.29236561 C252.54716774 18.53002563 251.78750249 20.76459265 251.02758592 22.9991985 C250.48857789 24.59841758 249.95001358 26.19778628 249.41186327 27.7972942 C247.68905058 32.9094837 245.95298976 38.01712313 244.21508592 43.1241985 C243.64427813 44.80339533 243.07347729 46.48259453 242.50268358 48.16179615 C238.72468617 59.26999198 234.92604129 70.37109213 231.12377733 81.47100025 C228.35958666 89.54188745 225.59917622 97.6140665 222.84008592 105.6866985 C222.54184923 106.55893055 222.24361253 107.43116261 221.93633837 108.32982594 C218.65291649 117.93492939 215.39417733 127.54645424 212.21508592 137.1866985 C208.76856318 147.63084957 205.11508995 157.99995036 201.46508592 168.3741985 C195.75860526 184.59348541 190.23499283 200.86651769 184.83617967 217.19060475 C184.50917574 218.17883732 184.50917574 218.17883732 184.17556566 219.18703419 C183.04553348 222.60430181 181.92058253 226.02314908 180.8015117 229.44402272 C180.34697873 230.8257146 179.89239093 232.20738845 179.43774217 233.58904225 C178.83264818 235.43743702 178.83264818 235.43743702 178.21533006 237.32317311 C177.21508592 240.1241985 177.21508592 240.1241985 176.21508592 241.1241985 C174.8180878 241.22071148 173.4162322 241.2479173 172.01590437 241.24724633 C171.10474707 241.24923737 170.19358978 241.25122842 169.25482166 241.25327981 C168.24219699 241.25036696 167.22957233 241.24745412 166.18626207 241.24445301 C165.11960048 241.24530744 164.05293889 241.24616186 162.95395422 241.24704218 C159.35014489 241.24870015 155.74638126 241.24317044 152.14257616 241.23772389 C149.57103279 241.23744206 146.99948935 241.23759967 144.42794603 241.23816639 C138.8763658 241.23869181 133.32479729 241.23554318 127.77322 241.22992855 C119.74648287 241.22181593 111.71975142 241.21919858 103.69301064 241.21794056 C90.67147588 241.21574967 77.64994737 241.20908857 64.628416 241.19963795 C51.97607257 241.1904648 39.32373083 241.18338349 26.67138475 241.17913014 C25.89204163 241.17886741 25.11269851 241.17860469 24.30973893 241.17833401 C20.40016697 241.17702901 16.49059501 241.17576529 12.58102304 241.1745221 C-19.87429388 241.16414832 -52.32960315 241.14652899 -84.78491408 241.1241985 C-84.04744745 236.40059405 -82.89038074 232.01599596 -81.34741408 227.4991985 C-80.95815748 226.34399708 -80.95815748 226.34399708 -80.56103712 225.16545826 C-77.75659741 216.91243862 -74.77705249 208.72168267 -71.82153517 200.52190357 C-67.90769064 189.6009207 -64.23509074 178.60476676 -60.62793165 167.57903248 C-58.66191299 161.59205416 -56.64167498 155.64933449 -54.33960158 149.7804485 C-51.15559271 141.64520277 -48.45685235 133.35596105 -45.72241408 125.0616985 C-45.20121647 123.48803578 -44.67973329 121.91446762 -44.15796095 120.34099537 C-42.30620287 114.75399489 -40.45750521 109.16599302 -38.61596876 103.57561451 C-36.90394399 98.39887357 -35.13112179 93.27193067 -33.15991408 88.1866985 C-28.64102241 76.31685994 -24.62135219 64.2657689 -20.51190382 52.24980885 C-18.42729718 46.15472777 -16.34012626 40.0605246 -14.25274855 33.9663921 C-13.49542972 31.75393712 -12.73943322 29.541034 -11.98364455 27.32805592 C-9.68113457 20.59276825 -7.36201547 13.86339061 -4.99194533 7.15154225 C-4.39023512 5.44405812 -4.39023512 5.44405812 -3.77636915 3.70207936 C-2.41723507 0.16819687 -2.41723507 0.16819687 0 0 Z M57.21508592 67.1241985 C52.2879548 80.22075109 52.2879548 80.22075109 47.77758592 93.4366985 C45.60713762 100.04842137 43.34380543 106.60764286 40.90258592 113.1241985 C37.0016951 123.55476878 33.4016029 134.08563708 29.79321092 144.62029225 C28.07334367 149.64049837 26.33328572 154.65271493 24.57446092 159.65935475 C23.94773485 161.44877491 23.94773485 161.44877491 23.30834764 163.27434498 C22.5114803 165.54725337 21.71116301 167.8189559 20.90698045 170.08928639 C20.55232713 171.10369801 20.19767381 172.11810963 19.83227342 173.163261 C19.5188701 174.05223072 19.20546678 174.94120045 18.88256639 175.85710865 C18.07386854 178.20995702 18.07386854 178.20995702 18.21508592 181.1241985 C50.22508592 181.1241985 82.23508592 181.1241985 115.21508592 181.1241985 C124.12028194 155.31382514 124.12028194 155.31382514 132.55639452 129.38494068 C134.4273101 123.41860493 136.37646626 117.47850744 138.32836717 111.538261 C138.67366472 110.48580189 139.01896227 109.43334278 139.37472337 108.34899098 C140.78546013 104.05010869 142.19742579 99.75163746 143.612791 95.45427662 C144.66632784 92.25392347 145.71635244 89.05243502 146.76586717 85.850761 C147.08356569 84.88925129 147.40126421 83.92774159 147.72858995 82.93709522 C148.02617708 82.02769184 148.32376421 81.11828846 148.63036913 80.1813274 C148.88905275 79.39496907 149.14773638 78.60861073 149.4142589 77.79842335 C150.46953288 74.27451643 151.32291332 70.6928889 152.21508592 67.1241985 C120.86508592 67.1241985 89.51508592 67.1241985 57.21508592 67.1241985 Z " fill="#2A948A" transform="translate(1226.7849140763283,226.8758015036583)"/>
<path d="M0 0 C-1.10792175 6.09356962 -2.87627871 11.79917828 -4.9375 17.625 C-5.31672607 18.69899048 -5.31672607 18.69899048 -5.70361328 19.79467773 C-6.84404759 22.96982534 -8.02867567 26.06394435 -9.41015625 29.14453125 C-12.46225558 36.12701754 -14.42025102 43.59696904 -16.68359375 50.86132812 C-17.06644531 52.07369141 -17.44929688 53.28605469 -17.84375 54.53515625 C-18.18599609 55.632229 -18.52824219 56.72930176 -18.88085938 57.85961914 C-20 61 -20 61 -23 67 C-65.57 67 -108.14 67 -152 67 C-152.66 69.31 -153.32 71.62 -154 74 C-154.65909231 75.76089568 -155.34400391 77.51249615 -156.0625 79.25 C-157.1223713 81.82568723 -158.11865165 84.35595496 -159 87 C-116.1 87 -73.2 87 -29 87 C-29.73683217 91.42099304 -30.4963706 94.75803971 -32.00390625 98.8671875 C-32.41108887 99.98883301 -32.81827148 101.11047852 -33.23779297 102.26611328 C-33.67494629 103.4570459 -34.11209961 104.64797852 -34.5625 105.875 C-35.4748194 108.38987397 -36.38566922 110.90519413 -37.29296875 113.421875 C-37.52171692 114.05582184 -37.75046509 114.68976868 -37.98614502 115.34292603 C-40.56409153 122.51911489 -42.95629087 129.75524263 -45.31079102 137.00732422 C-50.80965394 153.80965394 -50.80965394 153.80965394 -53 156 C-54.65275821 156.10610206 -56.31003572 156.142413 -57.96617126 156.15148926 C-59.04166733 156.15983292 -60.11716339 156.16817657 -61.22525024 156.17677307 C-62.41540741 156.18095749 -63.60556458 156.18514191 -64.83178711 156.18945312 C-66.07717758 156.19774643 -67.32256805 156.20603973 -68.60569763 156.21458435 C-71.32037005 156.23203182 -74.03498525 156.24767885 -76.74967766 156.26036072 C-81.03917735 156.28053483 -85.3286083 156.30819378 -89.61805725 156.33703613 C-98.72450602 156.39720193 -107.83099598 156.44900183 -116.9375 156.5 C-126.76378757 156.55504426 -136.59005432 156.61150617 -146.41627508 156.67754889 C-150.68328883 156.70594209 -154.95029441 156.72952257 -159.21735561 156.74947357 C-162.49120118 156.76597549 -165.76500422 156.78877652 -169.03881836 156.81054688 C-170.22695129 156.81473129 -171.41508423 156.81891571 -172.63922119 156.82322693 C-173.71753708 156.83157059 -174.79585297 156.83991425 -175.90684509 156.84851074 C-176.8476187 156.85366447 -177.78839231 156.85881821 -178.75767422 156.86412811 C-181.03711642 156.85510113 -181.03711642 156.85510113 -183 158 C-183.99229693 159.73806665 -183.99229693 159.73806665 -184.875 161.859375 C-185.22046875 162.64570313 -185.5659375 163.43203125 -185.921875 164.2421875 C-186.27765625 165.06976563 -186.6334375 165.89734375 -187 166.75 C-187.35578125 167.56210937 -187.7115625 168.37421875 -188.078125 169.2109375 C-189.78416035 173.11954088 -191.41554427 177.03886068 -193 181 C-149.44 181 -105.88 181 -61 181 C-64.39867458 201.39204749 -74.24300554 221.95756106 -81 241 C-151.62 241 -222.24 241 -295 241 C-294.21884998 235.53194989 -293.16097846 231.32323628 -291.1875 226.3125 C-287.66698777 217.06683303 -284.53484011 207.70561076 -281.4375 198.3125 C-276.74792434 184.11063406 -271.87826305 169.97978314 -266.90930176 155.87341309 C-262.86688771 144.39339748 -258.92955254 132.88923726 -255.12255859 121.32861328 C-252.33181536 112.8937582 -249.34164007 104.54049782 -246.30126953 96.19287109 C-243.77375485 89.22652567 -241.37810703 82.22692206 -239.0625 75.1875 C-234.98296722 62.79396969 -230.57625481 50.52457023 -226.16210938 38.24707031 C-224.48030347 33.54790675 -222.83051318 28.83784154 -221.1875 24.125 C-220.63677771 22.54815649 -220.08599885 20.97133273 -219.53515625 19.39453125 C-219.27879395 18.66057129 -219.02243164 17.92661133 -218.75830078 17.17041016 C-218.50806152 16.4541748 -218.25782227 15.73793945 -218 15 C-217.62270752 13.91984619 -217.62270752 13.91984619 -217.23779297 12.81787109 C-216.5366184 10.8149768 -215.83150173 8.81352031 -215.125 6.8125 C-214.73570312 5.70519531 -214.34640625 4.59789062 -213.9453125 3.45703125 C-213 1 -213 1 -212 0 C-209.32866515 -0.11245557 -206.68254843 -0.15942695 -204.01017761 -0.16494751 C-202.73906103 -0.17341282 -202.73906103 -0.17341282 -201.44226533 -0.18204916 C-198.58024982 -0.19985994 -195.7182515 -0.21049613 -192.85620117 -0.22119141 C-190.8133064 -0.23239973 -188.77041392 -0.24403164 -186.7275238 -0.25605774 C-181.16139286 -0.28747554 -175.59524961 -0.31255039 -170.02908111 -0.3362546 C-164.21462919 -0.3617865 -158.40020209 -0.39213747 -152.58576965 -0.42172241 C-142.81622741 -0.47061491 -133.04667231 -0.51528137 -123.27709961 -0.55761719 C-111.97374982 -0.60666448 -100.67045332 -0.662965 -89.36715716 -0.72303832 C-79.67630064 -0.77434738 -69.98543064 -0.82169308 -60.29453832 -0.86572587 C-54.50071445 -0.89205861 -48.70690621 -0.91978823 -42.91310692 -0.9510994 C-37.46396374 -0.98033066 -32.01482076 -1.00459652 -26.56563759 -1.02499962 C-24.56289999 -1.0333165 -22.56016879 -1.04337739 -20.55744934 -1.05528831 C-17.82855236 -1.07123718 -15.09970327 -1.08093775 -12.37077332 -1.08901978 C-11.17529768 -1.09820228 -11.17529768 -1.09820228 -9.95567101 -1.10757029 C-6.45943865 -1.11175323 -3.36314892 -0.93886898 0 0 Z " fill="#2A9389" transform="translate(692,227)"/>
<path d="M0 0 C69.96 0 139.92 0 212 0 C211.35877876 3.20610618 210.7859481 5.87878448 209.72827148 8.89038086 C209.47387802 9.61982407 209.21948456 10.34926727 208.9573822 11.10081482 C208.68140701 11.88094437 208.40543182 12.66107391 208.12109375 13.46484375 C207.83073746 14.29343399 207.54038116 15.12202423 207.2412262 15.97572327 C206.62324325 17.73721529 206.00365031 19.49814318 205.38256836 21.25854492 C204.46186741 23.86842647 203.54587438 26.47991722 202.63085938 29.09179688 C198.17802154 41.76305568 193.59044226 54.37628379 189 67 C146.43 67.33 103.86 67.66 60 68 C57.525 74.435 57.525 74.435 55 81 C54.01 82.98 53.02 84.96 52 87 C94.9 87 137.8 87 182 87 C183 89 183 89 182.44604492 91.16943359 C182.12740479 92.07000488 181.80876465 92.97057617 181.48046875 93.8984375 C181.12235107 94.92179199 180.7642334 95.94514648 180.39526367 96.99951172 C179.79742065 98.67037842 179.79742065 98.67037842 179.1875 100.375 C178.58095581 102.09807373 178.58095581 102.09807373 177.9621582 103.85595703 C176.65041223 107.57386871 175.32692015 111.28748743 174 115 C173.55071892 116.25909234 173.10150001 117.51820687 172.65234375 118.77734375 C169.12418284 128.66236601 169.12418284 128.66236601 167.4519043 133.30615234 C165.14760492 139.71659505 162.94948648 146.14242323 160.90551758 152.64111328 C160 155 160 155 158 157 C155.72364616 157.24609566 155.72364616 157.24609566 152.82418823 157.24050903 C151.72759888 157.24325836 150.63100952 157.24600769 149.50119019 157.24884033 C147.688582 157.2380545 147.688582 157.2380545 145.83935547 157.22705078 C143.93697113 157.22748886 143.93697113 157.22748886 141.99615479 157.22793579 C138.51285692 157.22851097 135.02969606 157.21673007 131.54643011 157.20278788 C127.90824924 157.19030796 124.27006543 157.18911219 120.63186646 157.18673706 C113.73995545 157.18051421 106.84810768 157.16409256 99.95622456 157.14403808 C92.11111264 157.12170406 84.26599774 157.11069195 76.42086196 157.10064721 C60.28053758 157.079727 44.14027685 157.04453545 28 157 C27.67 158.32 27.34 159.64 27 161 C23.04 170.9 23.04 170.9 19 181 C62.56 181 106.12 181 151 181 C150.21946996 184.90265018 149.30088167 188.26226129 147.99609375 191.98828125 C147.58875 193.1589917 147.18140625 194.32970215 146.76171875 195.53588867 C146.32038616 196.79478494 145.87897832 198.05365483 145.4375 199.3125 C144.52785007 201.91854308 143.62074537 204.52546425 142.71484375 207.1328125 C142.37234085 208.11785011 142.37234085 208.11785011 142.0229187 209.12278748 C140.51890632 213.46253787 139.05965267 217.81509006 137.62890625 222.1796875 C137.26804932 223.28014404 136.90719238 224.38060059 136.53540039 225.5144043 C135.8564896 227.59499934 135.18232739 229.6771512 134.51342773 231.76098633 C134.05818726 233.15353638 134.05818726 233.15353638 133.59375 234.57421875 C133.33271484 235.38463623 133.07167969 236.19505371 132.80273438 237.0300293 C132 239 132 239 130 241 C127.19169891 241.19344778 124.48236846 241.26039538 121.67318726 241.24050903 C120.80168175 241.24221788 119.93017625 241.24392673 119.03226149 241.24568737 C116.0948305 241.24899703 113.15762499 241.23795437 110.22021484 241.22705078 C108.12142441 241.22648699 106.02263359 241.22680261 103.92384338 241.22793579 C98.21129981 241.22851154 92.49883958 241.21672135 86.78631544 241.20278788 C80.82187283 241.19031746 74.85742849 241.18911294 68.89297485 241.18673706 C57.59178779 241.18051141 46.29063924 241.16408596 34.98946917 241.14403808 C22.12631135 241.12171276 9.26315172 241.11069414 -3.60002065 241.10064721 C-30.06670182 241.07972065 -56.53334875 241.04452367 -83 241 C-82.38529119 236.42991276 -81.59093525 232.31237727 -80.06640625 227.95703125 C-79.47170532 226.24459229 -79.47170532 226.24459229 -78.86499023 224.49755859 C-78.43516846 223.28148926 -78.00534668 222.06541992 -77.5625 220.8125 C-77.1115796 219.52181506 -76.66114889 218.23095895 -76.21118164 216.93994141 C-72.76399433 207.07308985 -69.22712553 197.23815399 -65.68847656 187.40380859 C-62.37445376 178.1529209 -59.25891126 168.84364824 -56.18334961 159.51123047 C-54.07041828 153.12700213 -51.86845042 146.79370285 -49.5 140.5 C-46.30808866 132.01558074 -43.4567971 123.43279907 -40.62158203 114.82348633 C-37.44694724 105.23080042 -34.07662547 95.71680464 -30.66436768 86.20700073 C-27.35358732 76.96826371 -24.19758381 67.69858946 -21.36865234 58.29956055 C-20.01008556 53.85920177 -18.44959326 49.60624203 -16.62109375 45.3359375 C-13.62828723 38.29935956 -11.28435269 31.08131237 -8.9375 23.8125 C-8.09798776 21.213 -7.25200584 18.6157291 -6.40234375 16.01953125 C-6.03616943 14.88620361 -5.66999512 13.75287598 -5.29272461 12.58520508 C-3.7490615 8.30405442 -1.84831589 4.15871075 0 0 Z " fill="#299389" transform="translate(713,227)"/>
<path d="M0 0 C366.63 0 733.26 0 1111 0 C1111 4.76355061 1110.97705237 6.813106 1109.46875 10.9609375 C1109.15292969 11.84394531 1108.83710937 12.72695312 1108.51171875 13.63671875 C1108.17785156 14.54035156 1107.84398437 15.44398438 1107.5 16.375 C1107.16613281 17.30183594 1106.83226562 18.22867188 1106.48828125 19.18359375 C1105.66727948 21.45894151 1104.83768062 23.73075121 1104 26 C1103.67 26 1103.34 26 1103 26 C1102.62047705 19.80112515 1103.1647887 15.5522888 1106 10 C1106.66 10 1107.32 10 1108 10 C1108 7.36 1108 4.72 1108 2 C742.36 2 376.72 2 0 2 C0 1.34 0 0.68 0 0 Z " fill="#93C7C2" transform="translate(403,134)"/>
<path d="M0 0 C0.99 1.98 0.99 1.98 2 4 C0.68 7.3 -0.64 10.6 -2 14 C-59.75 14 -117.5 14 -177 14 C-177.33 14.66 -177.66 15.32 -178 16 C-178 14.68 -178 13.36 -178 12 C-120.25 12 -62.5 12 -3 12 C-3 10.68 -3 9.36 -3 8 C-2.34 8 -1.68 8 -1 8 C-0.67 5.36 -0.34 2.72 0 0 Z " fill="#73B8B3" transform="translate(1182,280)"/>
<path d="M0 0 C48.18 0 96.36 0 146 0 C146.33 1.32 146.66 2.64 147 4 C145.5625 6.25 145.5625 6.25 144 8 C144 7.34 144 6.68 144 6 C143.01 5.505 143.01 5.505 142 5 C142.99 5 143.98 5 145 5 C145 4.01 145 3.02 145 2 C96.82 2.33 48.64 2.66 -1 3 C-0.67 2.01 -0.34 1.02 0 0 Z " fill="#87C0BA" transform="translate(1028,314)"/>
<path d="M0 0 C1 3 1 3 -3 13 C-45.57 13.33 -88.14 13.66 -132 14 C-132.99 16.64 -133.98 19.28 -135 22 C-135.33 22 -135.66 22 -136 22 C-135.505 17.545 -135.505 17.545 -135 13 C-134.34 13 -133.68 13 -133 13 C-133 12.34 -133 11.68 -133 11 C-133.66 11 -134.32 11 -135 11 C-134.67 10.01 -134.34 9.02 -134 8 C-133.34 8.33 -132.68 8.66 -132 9 C-132 9.66 -132 10.32 -132 11 C-89.76 11 -47.52 11 -4 11 C-4 9.68 -4 8.36 -4 7 C-3.34 7 -2.68 7 -2 7 C-2 5.02 -2 3.04 -2 1 C-1.34 0.67 -0.68 0.34 0 0 Z " fill="#3F9086" transform="translate(905,281)"/>
<path d="M0 0 C0.66 0 1.32 0 2 0 C1.74069171 1.54364699 1.46690524 3.0848638 1.1875 4.625 C0.96126953 5.91277344 0.96126953 5.91277344 0.73046875 7.2265625 C0 10 0 10 -3 16 C-45.57 16 -88.14 16 -132 16 C-132 15.34 -132 14.68 -132 14 C-89.76 14 -47.52 14 -4 14 C-3.67 11.69 -3.34 9.38 -3 7 C-2.34 6.01 -1.68 5.02 -1 4 C-0.36707617 1.88719655 -0.36707617 1.88719655 0 0 Z " fill="#5DACA3" transform="translate(672,278)"/>
<path d="M0 0 C0.33 0.99 0.66 1.98 1 3 C43.9 3 86.8 3 131 3 C130 9 130 9 128 11 C128 9.02 128 7.04 128 5 C85.76 5 43.52 5 0 5 C-0.33 4.01 -0.66 3.02 -1 2 C-0.67 1.34 -0.34 0.68 0 0 Z " fill="#85BEB8" transform="translate(532,311)"/>
<path d="M0 0 C43.23 0 86.46 0 131 0 C132 2 132 2 131.0625 5.125 C130.711875 6.07375 130.36125 7.0225 130 8 C129.67 8 129.34 8 129 8 C129 6.02 129 4.04 129 2 C86.43 2 43.86 2 0 2 C0 1.34 0 0.68 0 0 Z " fill="#84BDB7" transform="translate(764,314)"/>
<path d="M0 0 C69.96 0 139.92 0 212 0 C211 5 211 5 209 8 C208.61781233 6.34385343 208.28604898 4.67542976 208 3 C208.33 2.67 208.66 2.34 209 2 C140.03 1.67 71.06 1.34 0 1 C0 0.67 0 0.34 0 0 Z " fill="#96B5B5" transform="translate(713,227)"/>
<path d="M0 0 C2.0625 0.4375 2.0625 0.4375 4 1 C3.34 3.31 2.68 5.62 2 8 C45.56 8 89.12 8 134 8 C133.67 9.98 133.34 11.96 133 14 C132.67 12.68 132.34 11.36 132 10 C88.77 9.67 45.54 9.34 1 9 C1 6.69 1 4.38 1 2 C0.34 1.67 -0.32 1.34 -1 1 C-0.67 0.67 -0.34 0.34 0 0 Z " fill="#51ADA0" transform="translate(497,400)"/>
<path d="M0 0 C0.33 0.66 0.66 1.32 1 2 C44.56 2 88.12 2 133 2 C132.22714361 5.86428195 131.28980123 9.30256981 130 13 C129.67 13 129.34 13 129 13 C129.33 10.03 129.66 7.06 130 4 C65.65 3.505 65.65 3.505 0 3 C0 2.01 0 1.02 0 0 Z " fill="#51ABA0" transform="translate(731,406)"/>
<path d="M0 0 C1 3 1 3 -3 13 C-45.57 13 -88.14 13 -132 13 C-132 12.67 -132 12.34 -132 12 C-89.76 12 -47.52 12 -4 12 C-4 10.35 -4 8.7 -4 7 C-3.34 7 -2.68 7 -2 7 C-2 5.02 -2 3.04 -2 1 C-1.34 0.67 -0.68 0.34 0 0 Z " fill="#79CAC0" transform="translate(905,281)"/>
<path d="M0 0 C2 2 2 2 2 6 C22.46 6 42.92 6 64 6 C63.34 7.32 62.68 8.64 62 10 C61.505 9.01 61.505 9.01 61 8 C40.87 8 20.74 8 0 8 C-0.92538169 4.29847322 -1.08174162 3.36541838 0 0 Z " fill="#89B1B0" transform="translate(1006,376)"/>
<path d="M0 0 C3.91258965 5.86888448 4.15564623 9.18168727 3 16 C2.01 16.33 1.02 16.66 0 17 C-0.66 16.67 -1.32 16.34 -2 16 C-2 14.68 -2 13.36 -2 12 C-2.66 12 -3.32 12 -4 12 C-3.33501617 7.61110675 -1.81242323 4.0188515 0 0 Z " fill="#3B9A91" transform="translate(294,256)"/>
<path d="M0 0 C0.66 0.99 1.32 1.98 2 3 C2.99 3 3.98 3 5 3 C5.33 4.65 5.66 6.3 6 8 C6.66 8 7.32 8 8 8 C8 8.66 8 9.32 8 10 C1.84765625 10.87890625 1.84765625 10.87890625 0 11 C-0.33 10.67 -0.66 10.34 -1 10 C-1.33 11.98 -1.66 13.96 -2 16 C-2.99 16 -3.98 16 -5 16 C-3.41078475 10.63904723 -1.81027062 5.29156027 0 0 Z " fill="#459E96" transform="translate(712,228)"/>
<path d="M0 0 C1.32 0 2.64 0 4 0 C3.38574623 5.7926463 1.84466956 10.94609066 -0.0625 16.4375 C-0.34416016 17.26443359 -0.62582031 18.09136719 -0.91601562 18.94335938 C-1.60517792 20.96412338 -2.3018231 22.98233282 -3 25 C-3.33 25 -3.66 25 -4 25 C-4.37952295 18.80112515 -3.8352113 14.5522888 -1 9 C-0.34 9 0.32 9 1 9 C0.67 6.03 0.34 3.06 0 0 Z " fill="#61AAA1" transform="translate(1510,135)"/>
<path d="M0 0 C0.33 0 0.66 0 1 0 C1 1.98 1 3.96 1 6 C1.66 6 2.32 6 3 6 C2.67 6.99 2.34 7.98 2 9 C1.01 8.34 0.02 7.68 -1 7 C-0.9071875 8.85625 -0.9071875 8.85625 -0.8125 10.75 C-0.79921938 14.52169529 -1.45147414 16.14565104 -4 19 C-4.70514846 21.14733927 -4.70514846 21.14733927 -5 23 C-5.66 23 -6.32 23 -7 23 C-6.33654156 17.74272175 -4.74419696 13.07140932 -2.9375 8.125 C-2.65583984 7.34125 -2.37417969 6.5575 -2.08398438 5.75 C-1.39386218 3.83169424 -0.69755684 1.91561481 0 0 Z " fill="#5DA9A3" transform="translate(905,343)"/>
<path d="M0 0 C0.33 0 0.66 0 1 0 C1 10.3 1 10.3 -1 15 C-3.0625 16.1875 -3.0625 16.1875 -5 17 C-5.33 17.99 -5.66 18.98 -6 20 C-5.36757331 15.27497299 -4.08186437 11.09429803 -2.4375 6.625 C-2.20353516 5.98433594 -1.96957031 5.34367187 -1.72851562 4.68359375 C-1.15700381 3.1206839 -0.57915771 1.56009273 0 0 Z " fill="#63ADA4" transform="translate(680,320)"/>
<path d="M0 0 C0.33 0.99 0.66 1.98 1 3 C1.99 2.67 2.98 2.34 4 2 C3.125 7.75 3.125 7.75 2 10 C-0.0625 10.625 -0.0625 10.625 -2 11 C-2.95465783 8.83032311 -3.14401212 7.43671207 -2.3984375 5.17578125 C-1.64129615 3.4315257 -0.82390802 1.71372869 0 0 Z " fill="#419F96" transform="translate(946,228)"/>
<path d="M0 0 C1.23701372 3.71104116 0.42126979 4.48862758 -1 8 C-1.16798262 10.70886941 -1.16798262 10.70886941 -1 13 C-2.32 13 -3.64 13 -5 13 C-5.33 14.32 -5.66 15.64 -6 17 C-7 15 -7 15 -6.07421875 11.77734375 C-5.61997447 10.49453658 -5.15736546 9.21466818 -4.6875 7.9375 C-4.46126953 7.28716797 -4.23503906 6.63683594 -4.00195312 5.96679688 C-2.25447421 1.1272371 -2.25447421 1.1272371 0 0 Z " fill="#59ABA0" transform="translate(77,153)"/>
<path d="M0 0 C0.98120464 3.05263664 0.98120464 4.94736336 0 8 C2.64 8 5.28 8 8 8 C8 8.66 8 9.32 8 10 C0.25 11.125 0.25 11.125 -2 10 C-2 11.65 -2 13.3 -2 15 C-2.66 14.67 -3.32 14.34 -4 14 C-3.52372025 12.04096255 -3.04388577 10.08278903 -2.5625 8.125 C-2.29566406 7.03445312 -2.02882813 5.94390625 -1.75390625 4.8203125 C-1 2 -1 2 0 0 Z " fill="#53A39B" transform="translate(1224,228)"/>
<path d="M0 0 C0.99 0.33 1.98 0.66 3 1 C1.50829734 5.9723422 -0.60457417 10.41845739 -3 15 C-4.07174763 11.34811918 -3.76411467 8.73567172 -3 5 C-2.34 5 -1.68 5 -1 5 C-0.67 3.35 -0.34 1.7 0 0 Z " fill="#5EADA2" transform="translate(505,385)"/>
<path d="M0 0 C2 2 2 2 2 6 C7.28 6 12.56 6 18 6 C18 6.66 18 7.32 18 8 C12.06 8 6.12 8 0 8 C-0.92538169 4.29847322 -1.08174162 3.36541838 0 0 Z " fill="#8BBAB6" transform="translate(1006,376)"/>
<path d="M0 0 C0.66 0 1.32 0 2 0 C1.27275406 5.52706913 -0.33445973 10.69960141 -2 16 C-3.74627478 13.38058783 -4.38722388 11.96175123 -5 9 C-3.68 8.67 -2.36 8.34 -1 8 C-1.020625 6.865625 -1.04125 5.73125 -1.0625 4.5625 C-1 1 -1 1 0 0 Z " fill="#57AAA0" transform="translate(1448,328)"/>
<path d="M0 0 C1.30660357 4.29727397 0.6596762 7.60215865 0 12 C-0.99 12 -1.98 12 -3 12 C-3.33 14.64 -3.66 17.28 -4 20 C-4.66 20 -5.32 20 -6 20 C-4.38808348 13.14078075 -2.64031672 6.53792711 0 0 Z " fill="#65ADA5" transform="translate(395,158)"/>
<path d="M0 0 C1.80046688 5.73340162 -0.4437909 11.72781873 -3 17 C-3.66 17.33 -4.32 17.66 -5 18 C-4.42934122 11.58008874 -2.32655091 5.98410537 0 0 Z " fill="#61ACA2" transform="translate(653,398)"/>
<path d="M0 0 C0.33 1.32 0.66 2.64 1 4 C1.99 4 2.98 4 4 4 C3.34 6.64 2.68 9.28 2 12 C1.67 11.34 1.34 10.68 1 10 C0.01 10 -0.98 10 -2 10 C-1.46274105 6.62294375 -0.88935377 3.303314 0 0 Z " fill="#49A399" transform="translate(346,300)"/>
<path d="M0 0 C0.33 0 0.66 0 1 0 C1.625 2.875 1.625 2.875 2 6 C1.34 6.66 0.68 7.32 0 8 C-0.4640625 9.7325 -0.4640625 9.7325 -0.9375 11.5 C-2 15 -2 15 -5 17 C-1.92482916 5.47835991 -1.92482916 5.47835991 0 0 Z " fill="#6AAFA8" transform="translate(1377,299)"/>
<path d="M0 0 C1.3274855 3.98245651 -0.00092171 6.44789543 -1.4375 10.1875 C-1.80198242 11.16879883 -1.80198242 11.16879883 -2.17382812 12.16992188 C-2.7743293 13.78303286 -3.38609203 15.3919435 -4 17 C-4.33 17 -4.66 17 -5 17 C-4.67 13.7 -4.34 10.4 -4 7 C-3.34 7 -2.68 7 -2 7 C-2 5.02 -2 3.04 -2 1 C-1.34 0.67 -0.68 0.34 0 0 Z " fill="#78B8B1" transform="translate(1441,353)"/>
<path d="M0 0 C1 2 1 2 0.22265625 4.8203125 C-0.16019531 5.91085937 -0.54304687 7.00140625 -0.9375 8.125 C-1.31777344 9.22070312 -1.69804688 10.31640625 -2.08984375 11.4453125 C-2.39019531 12.28835938 -2.69054687 13.13140625 -3 14 C-3.33 14 -3.66 14 -4 14 C-4.125 6.25 -4.125 6.25 -3 4 C-3.33 3.01 -3.66 2.02 -4 1 C-2.68 0.67 -1.36 0.34 0 0 Z " fill="#58A49C" transform="translate(998,312)"/>
<path d="M0 0 C2.475 0.495 2.475 0.495 5 1 C4.01 4.3 3.02 7.6 2 11 C1.34 9.68 0.68 8.36 0 7 C0.33 6.01 0.66 5.02 1 4 C0.61067144 1.85744207 0.61067144 1.85744207 0 0 Z " fill="#4DA098" transform="translate(683,238)"/>
<path d="M0 0 C1 2 1 2 0.00390625 5.2578125 C-0.46889984 6.5497052 -0.94971969 7.83868638 -1.4375 9.125 C-1.68048828 9.78371094 -1.92347656 10.44242187 -2.17382812 11.12109375 C-2.77578321 12.74991338 -3.38702412 14.37529575 -4 16 C-4.33 16 -4.66 16 -5 16 C-4.67 12.37 -4.34 8.74 -4 5 C-3.34 5 -2.68 5 -2 5 C-2 3.68 -2 2.36 -2 1 C-1.34 0.67 -0.68 0.34 0 0 Z " fill="#62ABA2" transform="translate(1191,259)"/>
<path d="M0 0 C0.99 0 1.98 0 3 0 C2.36843005 5.05255964 0.86540627 9.29593201 -1 14 C-1.66 13.67 -2.32 13.34 -3 13 C-2.67 12.01 -2.34 11.02 -2 10 C-1.62775582 8.27463463 -1.2749994 6.54499691 -0.9375 4.8125 C-0.76089844 3.91144531 -0.58429687 3.01039063 -0.40234375 2.08203125 C-0.26957031 1.39496094 -0.13679687 0.70789063 0 0 Z " fill="#68AEA7" transform="translate(626,414)"/>
<path d="M0 0 C0.99 0.33 1.98 0.66 3 1 C1.66666667 5 0.33333333 9 -1 13 C-1.66 13 -2.32 13 -3 13 C-3.33 11.68 -3.66 10.36 -4 9 C-3.01 8.67 -2.02 8.34 -1 8 C-0.67 5.36 -0.34 2.72 0 0 Z " fill="#5BA79C" transform="translate(535,298)"/>
<path d="M0 0 C1.37606252 4.71792866 0.91009442 8.91213634 -1.0625 13.4375 C-1.5265625 14.2109375 -1.5265625 14.2109375 -2 15 C-2.66 15 -3.32 15 -4 15 C-3.32584613 9.7415998 -1.75734451 4.97361654 0 0 Z " fill="#73B5AE" transform="translate(1170,383)"/>
<path d="M0 0 C0.99 0 1.98 0 3 0 C2.34 3.3 1.68 6.6 1 10 C0.34 10 -0.32 10 -1 10 C-1.125 2.25 -1.125 2.25 0 0 Z " fill="#43A294" transform="translate(1363,342)"/>
<path d="M0 0 C0.82638376 2.89234315 1 4.88742431 1 8 C0.34 8 -0.32 8 -1 8 C-1.144375 8.763125 -1.28875 9.52625 -1.4375 10.3125 C-2 13 -2 13 -3 16 C-3.66 16 -4.32 16 -5 16 C-3.41078475 10.63904723 -1.81027062 5.29156027 0 0 Z " fill="#73B1AD" transform="translate(689,294)"/>
<path d="M0 0 C3.45854519 3.45854519 4 7.21904213 4 12 C2.68 11.67 1.36 11.34 0 11 C0 7.37 0 3.74 0 0 Z " fill="#68B2A9" transform="translate(290,244)"/>
<path d="M0 0 C1.37095624 3.69037278 0.60010967 5.70883835 -0.9375 9.25 C-1.31777344 10.14203125 -1.69804688 11.0340625 -2.08984375 11.953125 C-2.39019531 12.62859375 -2.69054688 13.3040625 -3 14 C-3.33 14 -3.66 14 -4 14 C-4.33 12.02 -4.66 10.04 -5 8 C-4.34 8 -3.68 8 -3 8 C-3 6.02 -3 4.04 -3 2 C-2.34 2 -1.68 2 -1 2 C-0.67 1.34 -0.34 0.68 0 0 Z " fill="#6CB6AD" transform="translate(1199,236)"/>
<path d="M0 0 C0.83815126 3.11501885 1.08081083 5.76756671 1 9 C1 10.32 1 11.64 1 13 C0.34 13 -0.32 13 -1 13 C-2.53690745 10.58959839 -3.09752136 9.49917715 -2.5390625 6.640625 C-2.23742187 5.85171875 -1.93578125 5.0628125 -1.625 4.25 C-1.32851563 3.45078125 -1.03203125 2.6515625 -0.7265625 1.828125 C-0.48679687 1.22484375 -0.24703125 0.6215625 0 0 Z " fill="#56A79F" transform="translate(638,441)"/>
<path d="M0 0 C0.66 0 1.32 0 2 0 C1.55037804 1.96035175 1.09001752 3.91824309 0.625 5.875 C0.36976563 6.96554687 0.11453125 8.05609375 -0.1484375 9.1796875 C-1 12 -1 12 -3 14 C-4.37095624 10.30962722 -3.60010967 8.29116165 -2.0625 4.75 C-1.68222656 3.85796875 -1.30195313 2.9659375 -0.91015625 2.046875 C-0.60980469 1.37140625 -0.30945313 0.6959375 0 0 Z " fill="#63A9A1" transform="translate(410,354)"/>
<path d="M0 0 C0.66 0 1.32 0 2 0 C1.00956295 4.83628305 0.04301154 9.47618873 -2 14 C-2.66 13.34 -3.32 12.68 -4 12 C-3.625 9.875 -3.625 9.875 -3 8 C-2.34 8 -1.68 8 -1 8 C-0.67 5.36 -0.34 2.72 0 0 Z " fill="#64ABA3" transform="translate(445,252)"/>
<path d="M0 0 C0.66 0.33 1.32 0.66 2 1 C1.54803755 2.60597325 1.08817673 4.20972508 0.625 5.8125 C0.36976563 6.70582031 0.11453125 7.59914063 -0.1484375 8.51953125 C-1 11 -1 11 -3 14 C-2.67 10.7 -2.34 7.4 -2 4 C-1.34 4 -0.68 4 0 4 C0 2.68 0 1.36 0 0 Z " fill="#67AFA8" transform="translate(855,428)"/>
<path d="M0 0 C2.0625 0.4375 2.0625 0.4375 4 1 C3.34 3.31 2.68 5.62 2 8 C3.65 8 5.3 8 7 8 C7 8.33 7 8.66 7 9 C5.02 9 3.04 9 1 9 C1 6.69 1 4.38 1 2 C0.34 1.67 -0.32 1.34 -1 1 C-0.67 0.67 -0.34 0.34 0 0 Z " fill="#5FAEA7" transform="translate(497,400)"/>
<path d="M0 0 C1.04184255 3.38598829 1.23042499 6.46681687 1 10 C0.34 10.66 -0.32 11.32 -1 12 C-1.66 11.67 -2.32 11.34 -3 11 C-2.69078116 9.54096742 -2.37751201 8.08279278 -2.0625 6.625 C-1.88847656 5.81289063 -1.71445313 5.00078125 -1.53515625 4.1640625 C-1 2 -1 2 0 0 Z " fill="#64ADA4" transform="translate(1205,283)"/>
<path d="M0 0 C0.92538169 3.70152678 1.08174162 4.63458162 0 8 C0.66 8.33 1.32 8.66 2 9 C2 9.99 2 10.98 2 12 C0.35 11.67 -1.3 11.34 -3 11 C-2.01 7.37 -1.02 3.74 0 0 Z " fill="#65AFAA" transform="translate(634,452)"/>
<path d="M0 0 C0.66 0 1.32 0 2 0 C1.71640113 1.4391134 1.42278601 2.87625518 1.125 4.3125 C0.88136719 5.51326172 0.88136719 5.51326172 0.6328125 6.73828125 C0 9 0 9 -2 12 C-2.79953138 8.71303767 -3.09658936 7.28976808 -2 4 C-1.34 4 -0.68 4 0 4 C0 2.68 0 1.36 0 0 Z " fill="#67AEA4" transform="translate(1406,452)"/>
<path d="M0 0 C0.66 0 1.32 0 2 0 C1.40075776 4.19469571 0.42500059 8.00999834 -1 12 C-1.66 10.68 -2.32 9.36 -3 8 C-2.34 8 -1.68 8 -1 8 C-1.020625 7.05125 -1.04125 6.1025 -1.0625 5.125 C-1 2 -1 2 0 0 Z " fill="#70B5AC" transform="translate(986,344)"/>
<path d="M0 0 C1.53690745 2.41040161 2.09752136 3.50082285 1.5390625 6.359375 C1.23742188 7.14828125 0.93578125 7.9371875 0.625 8.75 C0.32851562 9.54921875 0.03203125 10.3484375 -0.2734375 11.171875 C-0.51320313 11.77515625 -0.75296875 12.3784375 -1 13 C-1.66 13 -2.32 13 -3 13 C-3 11.35 -3 9.7 -3 8 C-2.34 8 -1.68 8 -1 8 C-0.67 5.36 -0.34 2.72 0 0 Z " fill="#74B3AC" transform="translate(1182,280)"/>
<path d="M0 0 C1 2 1 2 0.22265625 4.6015625 C-0.16019531 5.59929687 -0.54304687 6.59703125 -0.9375 7.625 C-1.50791016 9.12933594 -1.50791016 9.12933594 -2.08984375 10.6640625 C-2.39019531 11.43492187 -2.69054687 12.20578125 -3 13 C-3.33 13 -3.66 13 -4 13 C-3.91266424 11.39482903 -3.80447776 9.79078338 -3.6875 8.1875 C-3.62949219 7.29417969 -3.57148437 6.40085937 -3.51171875 5.48046875 C-2.93686419 2.69396 -2.1793144 1.75864246 0 0 Z " fill="#70B4AC" transform="translate(913,259)"/>
<path d="M0 0 C0.66666667 2.66666667 1.33333333 5.33333333 2 8 C-0.475 9.485 -0.475 9.485 -3 11 C-2.01 7.37 -1.02 3.74 0 0 Z " fill="#5BACA2" transform="translate(338,324)"/>
<path d="M0 0 C0.99352844 3.09097736 0.96367132 4.91625179 0 8 C-0.185625 8.7425 -0.37125 9.485 -0.5625 10.25 C-0.706875 10.8275 -0.85125 11.405 -1 12 C-1.66 12 -2.32 12 -3 12 C-2.40075776 7.80530429 -1.42500059 3.99000166 0 0 Z " fill="#59A59B" transform="translate(885,402)"/>
<path d="M0 0 C0.66 0 1.32 0 2 0 C2 1.98 2 3.96 2 6 C0.02 6.99 0.02 6.99 -2 8 C-1.125 1.125 -1.125 1.125 0 0 Z " fill="#4B9D93" transform="translate(684,310)"/>
<path d="M0 0 C1.21386936 3.64160808 0.6674695 4.33165469 -0.9375 7.6875 C-1.31777344 8.49574219 -1.69804688 9.30398438 -2.08984375 10.13671875 C-2.39019531 10.75160156 -2.69054687 11.36648438 -3 12 C-3.33 12 -3.66 12 -4 12 C-4 10.35 -4 8.7 -4 7 C-3.34 7 -2.68 7 -2 7 C-2 5.02 -2 3.04 -2 1 C-1.34 0.67 -0.68 0.34 0 0 Z " fill="#74B6AE" transform="translate(905,281)"/>
<path d="M0 0 C1.32 0.66 2.64 1.32 4 2 C2.625 4 2.625 4 1 6 C0.34 6 -0.32 6 -1 6 C-1.33 7.32 -1.66 8.64 -2 10 C-3 8 -3 8 -2.44140625 6.0546875 C-2.15136719 5.33539063 -1.86132812 4.61609375 -1.5625 3.875 C-1.27503906 3.15054688 -0.98757813 2.42609375 -0.69140625 1.6796875 C-0.46324219 1.12539062 -0.23507812 0.57109375 0 0 Z " fill="#62B0A8" transform="translate(937,252)"/>
<path d="M0 0 C0.33 0 0.66 0 1 0 C0.979375 0.94875 0.95875 1.8975 0.9375 2.875 C0.77448174 5.90666283 0.77448174 5.90666283 2 8 C0.35 9.32 -1.3 10.64 -3 12 C-2.40075776 7.80530429 -1.42500059 3.99000166 0 0 Z " fill="#67B1A8" transform="translate(388,178)"/>
<path d="M0 0 C0.99 0.99 1.98 1.98 3 3 C1.35 5.64 -0.3 8.28 -2 11 C-3 9 -3 9 -2.44140625 6.8359375 C-2.15136719 6.02382813 -1.86132812 5.21171875 -1.5625 4.375 C-1.27503906 3.55773437 -0.98757813 2.74046875 -0.69140625 1.8984375 C-0.46324219 1.27195312 -0.23507812 0.64546875 0 0 Z " fill="#69ADA7" transform="translate(416,409)"/>
<path d="M0 0 C1.45606519 4.52092968 0.27032841 7.51648796 -1 12 C-1.66 12 -2.32 12 -3 12 C-2.40075776 7.80530429 -1.42500059 3.99000166 0 0 Z " fill="#6DAFA8" transform="translate(435,354)"/>
<path d="M0 0 C0.33 0 0.66 0 1 0 C1.49230769 6.4 1.49230769 6.4 -1 9.4375 C-1.99 10.2109375 -1.99 10.2109375 -3 11 C-2.44894091 7.0507432 -1.61064629 3.65079826 0 0 Z " fill="#78B8B2" transform="translate(1193,317)"/>
<path d="M0 0 C1 2 1 2 0.44140625 4.1640625 C0.15136719 4.97617187 -0.13867188 5.78828125 -0.4375 6.625 C-0.72496094 7.44226563 -1.01242187 8.25953125 -1.30859375 9.1015625 C-1.53675781 9.72804688 -1.76492188 10.35453125 -2 11 C-2.33 11 -2.66 11 -3 11 C-3 7.7 -3 4.4 -3 1 C-2.01 0.67 -1.02 0.34 0 0 Z " fill="#69B0A7" transform="translate(1456,309)"/>
<path d="M0 0 C0.99 0 1.98 0 3 0 C2.34 2.97 1.68 5.94 1 9 C0.34 9 -0.32 9 -1 9 C-0.67 6.03 -0.34 3.06 0 0 Z " fill="#5BA89E" transform="translate(1481,229)"/>
<path d="M0 0 C0.66 0 1.32 0 2 0 C2.25 2.75 2.25 2.75 2 6 C0 8.375 0 8.375 -2 10 C-1.46274105 6.62294375 -0.88935377 3.303314 0 0 Z " fill="#60ABA2" transform="translate(372,224)"/>
<path d="M0 0 C1.47177418 3.82661288 0.57016757 6.31010622 -1 10 C-1.96715918 11.03179606 -2.96225307 12.0392288 -4 13 C-3.52140759 11.39566191 -3.04210442 9.79153584 -2.5625 8.1875 C-2.29566406 7.29417969 -2.02882813 6.40085937 -1.75390625 5.48046875 C-1.19612127 3.64526945 -0.60655425 1.81966274 0 0 Z " fill="#7DB8B2" transform="translate(402,450)"/>
<path d="M0 0 C1.47177418 3.82661288 0.57016757 6.31010622 -1 10 C-1.96715918 11.03179606 -2.96225307 12.0392288 -4 13 C-3.52140759 11.39566191 -3.04210442 9.79153584 -2.5625 8.1875 C-2.29566406 7.29417969 -2.02882813 6.40085937 -1.75390625 5.48046875 C-1.19612127 3.64526945 -0.60655425 1.81966274 0 0 Z " fill="#7FBCB6" transform="translate(1149,444)"/>
<path d="M0 0 C0.33 0 0.66 0 1 0 C1 2.64 1 5.28 1 8 C-0.98 8.99 -0.98 8.99 -3 10 C-2.01 6.7 -1.02 3.4 0 0 Z " fill="#62A9A1" transform="translate(873,437)"/>
<path d="M0 0 C0.103125 0.639375 0.20625 1.27875 0.3125 1.9375 C0.539375 2.618125 0.76625 3.29875 1 4 C1.99 4.33 2.98 4.66 4 5 C3.34 6.32 2.68 7.64 2 9 C1.67 8.01 1.34 7.02 1 6 C0.34 6 -0.32 6 -1 6 C-0.67 4.02 -0.34 2.04 0 0 Z " fill="#4FA39A" transform="translate(1163,404)"/>
<path d="M0 0 C0.66 0.66 1.32 1.32 2 2 C1.625 4.625 1.625 4.625 1 7 C0.01 7.33 -0.98 7.66 -2 8 C-1.125 2.25 -1.125 2.25 0 0 Z " fill="#54A49A" transform="translate(458,288)"/>
<path d="M0 0 C0.33 0.99 0.66 1.98 1 3 C1.66 3.33 2.32 3.66 3 4 C1.625 6.5 1.625 6.5 0 9 C-0.66 9 -1.32 9 -2 9 C-1.51421457 5.87709365 -1.0013988 3.00419641 0 0 Z " fill="#5FA8A0" transform="translate(1155,427)"/>
<path d="M0 0 C2.45823172 3.68734758 3.01242616 6.69699971 4 11 C3.34 10.67 2.68 10.34 2 10 C2 9.34 2 8.68 2 8 C1.34 8 0.68 8 0 8 C0 5.36 0 2.72 0 0 Z " fill="#78B7B0" transform="translate(308,296)"/>
<path d="M0 0 C0.66 0 1.32 0 2 0 C2 1.32 2 2.64 2 4 C2.66 4 3.32 4 4 4 C4 6.31 4 8.62 4 11 C1.54176828 7.31265242 0.98757384 4.30300029 0 0 Z " fill="#73B9B2" transform="translate(199,220)"/>
<path d="M0 0 C1 2 1 2 0.44140625 3.9453125 C0.15136719 4.66460937 -0.13867188 5.38390625 -0.4375 6.125 C-0.72496094 6.84945313 -1.01242187 7.57390625 -1.30859375 8.3203125 C-1.53675781 8.87460937 -1.76492188 9.42890625 -2 10 C-2.33 10 -2.66 10 -3 10 C-3.07427838 6.65747276 -3.06546953 4.1964086 -2 1 C-1.34 0.67 -0.68 0.34 0 0 Z " fill="#76BBB4" transform="translate(1152,378)"/>
<path d="M0 0 C0.33 0 0.66 0 1 0 C1.08762121 3.15436364 1.16513114 6.03421164 0 9 C-0.99 9.33 -1.98 9.66 -3 10 C-2.39009109 6.44219804 -1.4216319 3.3171411 0 0 Z " fill="#7BBCB4" transform="translate(661,375)"/>
<path d="M0 0 C0.33 0 0.66 0 1 0 C1.25 3.25 1.25 3.25 1 7 C-0.32 8.32 -1.64 9.64 -3 11 C-2.01 7.37 -1.02 3.74 0 0 Z " fill="#71B4AF" transform="translate(429,371)"/>
<path d="M0 0 C0.66 0 1.32 0 2 0 C1.49287967 3.71888239 0.88391785 6.73454239 -1 10 C-1.33 8.02 -1.66 6.04 -2 4 C-1.34 4 -0.68 4 0 4 C0 2.68 0 1.36 0 0 Z " fill="#71B4AD" transform="translate(642,368)"/>
<path d="M0 0 C0.66 0 1.32 0 2 0 C1.49287967 3.71888239 0.88391785 6.73454239 -1 10 C-1.125 2.25 -1.125 2.25 0 0 Z " fill="#6BB3AA" transform="translate(416,336)"/>
<path d="M0 0 C0.33 0 0.66 0 1 0 C1 2.64 1 5.28 1 8 C0.01 8.33 -0.98 8.66 -2 9 C-1.51421457 5.87709365 -1.0013988 3.00419641 0 0 Z " fill="#68ADA5" transform="translate(69,171)"/>
<path d="M0 0 C0.33 0.66 0.66 1.32 1 2 C1.66 2 2.32 2 3 2 C2.67 3.65 2.34 5.3 2 7 C1.67 6.34 1.34 5.68 1 5 C0.34 5 -0.32 5 -1 5 C-0.67 3.35 -0.34 1.7 0 0 Z " fill="#45A197" transform="translate(401,375)"/>
<path d="M0 0 C0.33 0.99 0.66 1.98 1 3 C1.66 3 2.32 3 3 3 C3 4.32 3 5.64 3 7 C2.01 7 1.02 7 0 7 C-0.93423645 3.98968256 -1.04449911 3.13349732 0 0 Z " fill="#63AFA8" transform="translate(326,349)"/>
<path d="M0 0 C1.5 1.3125 1.5 1.3125 3 3 C3 3.99 3 4.98 3 6 C2.01 6 1.02 6 0 6 C0 6.66 0 7.32 0 8 C-0.66 8 -1.32 8 -2 8 C-1.34 5.36 -0.68 2.72 0 0 Z " fill="#54A79D" transform="translate(450,310)"/>
<path d="M0 0 C0.98120464 3.05263664 0.98120464 4.94736336 0 8 C-0.66 8 -1.32 8 -2 8 C-2.33 8.99 -2.66 9.98 -3 11 C-2.32829194 7.1936543 -1.27253436 3.64793184 0 0 Z " fill="#63ACA4" transform="translate(699,266)"/>
</svg>
